<?xml version="1.0" standalone="no"?>
<!DOCTYPE svg PUBLIC "-//W3C//DTD SVG 20010904//EN"
 "http://www.w3.org/TR/2001/REC-SVG-20010904/DTD/svg10.dtd">
<svg version="1.0" xmlns="http://www.w3.org/2000/svg"
 width="1208.000000pt" height="1208.000000pt" viewBox="0 0 1208.000000 1208.000000"
 preserveAspectRatio="xMidYMid meet">
<metadata>
Created by potrace 1.14, written by Peter Selinger 2001-2017
</metadata>
<g transform="translate(0.000000,1208.000000) scale(0.100000,-0.100000)"
fill="#000000" stroke="none">
<path d="M2157 11994 c-1 -1 -29 -5 -62 -8 -242 -27 -542 -130 -800 -276 -46
-26 -215 -139 -231 -154 -6 -6 -31 -27 -57 -46 -128 -96 -350 -348 -461 -524
-153 -241 -276 -591 -313 -891 -10 -75 -10 -430 -1 -510 53 -462 276 -925 613
-1270 232 -238 521 -418 845 -528 90 -31 258 -74 320 -82 l45 -6 -3 803 c-2
442 -7 806 -10 810 -4 4 -108 55 -232 113 -398 189 -714 345 -732 362 -29 26
-54 85 -57 134 -6 107 89 209 195 209 26 0 181 -65 322 -134 51 -25 94 -46 96
-46 2 0 75 -34 162 -76 211 -101 245 -116 250 -112 2 2 5 193 7 423 5 447 6
456 55 508 101 107 263 80 332 -54 17 -32 19 -68 20 -420 2 -679 5 -1059 7
-1059 4 0 119 53 248 115 107 52 163 78 340 160 209 97 239 105 306 78 86 -34
132 -100 132 -189 0 -68 -33 -125 -92 -164 -42 -26 -206 -107 -536 -265 -66
-31 -181 -86 -255 -121 l-135 -65 2 -512 c0 -282 2 -515 2 -519 1 -4 19 -5 41
-3 22 2 66 7 98 10 198 19 473 94 648 176 34 16 64 29 67 29 8 0 170 91 227
128 179 116 439 359 558 522 34 47 67 90 72 97 6 7 10 15 10 17 0 3 16 30 35
61 32 50 122 227 152 301 43 102 112 340 128 439 30 181 40 488 20 630 -14
107 -22 154 -36 215 -6 25 -12 54 -15 65 -32 168 -171 484 -287 658 -191 283
-470 547 -737 696 -165 92 -404 190 -529 216 -9 2 -50 11 -91 20 -154 33 -265
43 -473 42 -114 0 -208 -1 -210 -3z"/>
<path d="M4889 9838 c-1 -2 -2 -34 -4 -73 -11 -318 -80 -630 -205 -930 -73
-174 -195 -385 -312 -538 -32 -43 -61 -83 -64 -90 -5 -15 -2 -17 296 -169 196
-101 292 -151 405 -213 188 -103 421 -254 510 -331 92 -79 105 -91 105 -101 0
-25 -242 -242 -469 -418 -35 -28 -89 -70 -120 -95 -67 -54 -322 -249 -354
-270 -12 -8 -75 -55 -140 -103 -141 -104 -557 -407 -782 -568 -88 -63 -166
-120 -173 -126 -7 -7 -17 -13 -21 -13 -4 0 -16 -8 -27 -17 -11 -10 -27 -22
-36 -28 -9 -5 -57 -39 -107 -75 -209 -149 -508 -361 -685 -484 -78 -55 -163
-114 -646 -454 -267 -188 -492 -346 -500 -352 -240 -165 -862 -616 -1069 -774
-251 -192 -267 -215 -270 -391 -2 -116 10 -166 74 -300 89 -184 244 -372 484
-585 41 -36 79 -70 85 -75 35 -33 232 -188 366 -287 434 -323 1176 -787 1885
-1178 33 -18 94 -52 135 -75 41 -23 113 -63 160 -87 47 -25 168 -91 270 -145
276 -149 374 -200 674 -353 l274 -140 3510 0 c2756 0 3516 3 3534 13 45 23 65
42 92 85 l27 43 -3 694 -3 693 -30 43 c-35 49 -77 73 -260 149 -71 29 -148 61
-170 71 -22 9 -168 72 -325 139 -287 123 -836 366 -985 435 -44 20 -136 63
-205 95 -370 171 -916 443 -1145 570 -27 15 -72 40 -100 55 -64 34 -338 194
-373 217 -15 10 -34 21 -42 25 -66 32 -355 243 -437 320 -106 100 -121 149
-82 266 22 65 88 200 101 205 5 2 8 8 8 12 0 18 392 587 473 685 33 41 56 80
50 86 -5 4 -44 27 -88 51 -126 70 -156 88 -215 126 -52 34 -209 149 -220 161
-3 3 -36 33 -75 66 -38 33 -73 64 -76 68 -3 5 -37 41 -76 80 -58 60 -117 129
-199 230 -8 10 -41 57 -73 105 -176 261 -285 502 -365 802 -26 99 -30 115 -47
215 -39 225 -46 615 -13 780 2 11 6 37 9 59 3 21 7 41 9 45 2 3 7 22 10 41 57
347 261 781 509 1089 37 46 66 88 64 94 -2 7 -289 129 -332 141 -5 2 -23 9
-40 15 -16 7 -59 24 -95 37 -36 13 -74 28 -85 33 -38 18 -423 160 -680 252
-60 22 -119 43 -130 48 -11 5 -40 16 -65 24 -25 8 -187 65 -360 127 -490 174
-737 257 -741 248z m1516 -5899 c93 -38 152 -78 225 -149 78 -77 103 -128 98
-197 -8 -94 -76 -166 -169 -179 -76 -10 -116 8 -204 94 -113 110 -114 110
-310 50 -171 -53 -304 -104 -560 -216 -280 -122 -521 -189 -672 -187 -144 2
-281 53 -363 136 -46 47 -97 147 -104 207 -3 24 -9 48 -12 54 -5 7 -36 9 -93
5 -136 -10 -431 -108 -700 -234 -94 -44 -295 -123 -314 -123 -7 0 -17 -3 -21
-7 -4 -5 -11 -8 -14 -8 -4 -1 -66 -15 -138 -33 -218 -54 -339 -45 -495 34
-212 106 -306 391 -171 516 120 111 301 48 336 -119 15 -68 130 -77 296 -24
203 65 330 113 490 188 153 71 203 91 335 131 188 58 326 87 400 85 61 -2 178
-33 241 -64 118 -58 231 -199 247 -308 3 -18 10 -38 15 -43 15 -15 134 -11
203 7 78 20 330 104 344 115 6 4 28 13 49 20 22 7 102 41 179 77 219 99 441
174 587 198 19 3 51 9 70 13 52 12 142 -4 225 -39z m2375 -2224 c121 -39 192
-85 290 -185 84 -85 115 -147 114 -220 -2 -90 -52 -158 -132 -179 -86 -23
-161 8 -232 95 -77 93 -129 118 -210 101 -50 -10 -233 -70 -333 -108 -100 -39
-122 -48 -182 -75 -109 -49 -239 -104 -290 -123 -33 -13 -69 -27 -80 -32 -31
-13 -222 -66 -305 -84 -88 -19 -127 -21 -195 -12 -229 30 -400 170 -445 365
l-12 52 -41 1 c-93 3 -133 -3 -256 -41 -185 -57 -304 -103 -501 -193 -116 -53
-208 -90 -295 -117 -274 -88 -419 -106 -549 -71 -226 62 -359 205 -371 397
-11 194 200 301 334 170 33 -32 45 -56 67 -134 5 -18 70 -43 113 -44 102 -2
364 87 696 237 284 127 572 207 720 200 87 -5 208 -42 275 -85 59 -38 133
-117 163 -174 11 -23 28 -68 37 -101 l16 -60 84 2 c131 2 389 87 731 242 75
34 182 77 237 96 92 31 302 88 362 97 51 8 137 0 190 -17z"/>
<path d="M9248 9385 c-2 -2 -36 -6 -77 -9 -354 -33 -764 -193 -1056 -414 -132
-100 -309 -271 -396 -382 -24 -30 -46 -57 -49 -60 -24 -23 -150 -228 -198
-325 -103 -205 -169 -409 -208 -645 -19 -119 -27 -445 -13 -550 5 -35 11 -82
14 -104 13 -103 68 -318 112 -436 69 -183 207 -424 334 -586 58 -73 225 -246
294 -304 300 -252 670 -422 1051 -485 31 -5 32 -4 36 35 3 33 2 1403 -1 1536
-1 40 -2 41 -68 71 -38 18 -122 57 -188 88 -66 32 -147 70 -180 85 -323 149
-541 258 -572 284 -133 112 -44 346 131 346 43 0 88 -19 456 -198 312 -150
395 -190 398 -187 2 1 4 191 6 421 3 351 6 425 19 454 59 135 222 167 323 64
23 -25 47 -59 53 -77 7 -20 12 -290 15 -747 2 -393 5 -716 5 -717 1 -1 22 9
49 22 26 13 90 44 142 68 52 25 140 66 195 92 297 140 405 185 442 184 182 -3
269 -228 132 -344 -29 -24 -295 -159 -579 -293 -142 -66 -365 -174 -369 -178
-7 -6 -4 -1022 3 -1033 4 -6 11 -9 14 -7 4 2 39 7 77 11 361 34 694 149 989
342 143 93 225 161 361 298 152 153 213 232 338 443 120 203 220 480 256 712
6 36 13 81 17 100 10 59 13 411 4 475 -5 33 -11 83 -15 110 -6 46 -32 172 -54
255 -45 174 -123 357 -223 525 -283 478 -753 839 -1279 983 -81 22 -103 27
-189 42 -30 6 -66 12 -80 15 -61 12 -462 29 -472 20z"/>
<path d="M2045 7048 c1 -486 5 -642 14 -673 36 -112 172 -171 281 -122 46 21
70 43 100 92 l24 40 3 648 4 647 -213 0 -214 0 1 -632z"/>
<path d="M9071 5055 c-4 -5 -7 -389 -5 -852 l2 -843 27 -46 c37 -63 103 -104
169 -104 80 0 120 16 165 65 22 24 41 48 42 52 0 5 3 17 6 28 3 11 7 400 10
865 l5 845 -207 0 c-130 0 -209 -3 -214 -10z"/>
</g>
</svg>
