<?xml version="1.0" standalone="no"?>
<!DOCTYPE svg PUBLIC "-//W3C//DTD SVG 20010904//EN"
 "http://www.w3.org/TR/2001/REC-SVG-20010904/DTD/svg10.dtd">
<svg version="1.0" xmlns="http://www.w3.org/2000/svg"
 width="3400.000000pt" height="1273.000000pt" viewBox="0 0 3400.000000 1273.000000"
 preserveAspectRatio="xMidYMid meet">

<g transform="translate(0.000000,1273.000000) scale(0.100000,-0.100000)"
fill="#000000" stroke="none">
<path d="M3355 10719 c-98 -13 -249 -53 -339 -88 -528 -210 -890 -646 -992
-1196 -28 -151 -26 -442 5 -585 55 -256 171 -499 332 -696 215 -264 527 -455
872 -534 54 -12 99 -21 100 -19 1 2 1 268 -1 590 l-3 587 -42 18 c-23 10 -182
86 -353 170 -225 109 -317 159 -329 177 -61 94 5 222 115 222 37 -1 96 -25
315 -129 149 -70 275 -130 281 -133 9 -3 13 79 15 311 4 299 5 316 25 342 32
44 68 66 115 71 52 6 99 -21 136 -76 l23 -34 0 -523 c0 -334 4 -524 10 -524 5
0 96 41 202 91 387 183 402 188 466 149 71 -43 93 -135 49 -201 -28 -42 -49
-54 -419 -231 l-298 -142 0 -378 0 -379 63 6 c34 4 116 18 183 31 595 117
1068 570 1215 1164 112 452 15 946 -259 1310 -239 316 -569 529 -951 611 -111
24 -418 34 -536 18z"/>
<path d="M19060 9985 c-266 -53 -463 -252 -529 -535 -37 -155 -41 -278 -41
-1215 0 -960 4 -1070 45 -1231 64 -251 231 -433 465 -506 66 -20 95 -23 240
-23 183 0 245 11 355 66 214 105 342 306 385 604 5 39 10 188 10 333 l0 262
-109 0 -109 0 -4 -302 c-4 -278 -6 -309 -27 -378 -47 -158 -129 -273 -231
-325 -148 -75 -384 -72 -530 6 -129 69 -213 215 -245 428 -22 142 -22 1991 0
2131 40 269 156 424 352 475 68 18 230 20 305 4 174 -37 285 -155 349 -371 20
-64 23 -103 26 -320 l5 -248 109 0 109 0 0 208 c0 211 -8 296 -36 412 -36 147
-114 283 -212 370 -73 66 -214 135 -314 155 -93 18 -277 18 -368 0z"/>
<path d="M23648 9990 c-183 -33 -344 -138 -446 -290 -48 -72 -97 -205 -119
-322 -17 -85 -18 -181 -18 -1133 0 -1131 0 -1130 56 -1300 82 -248 258 -409
502 -459 97 -20 275 -21 375 -1 198 40 369 169 456 347 85 172 106 302 106
660 l0 248 -110 0 -110 0 0 -257 c0 -142 -5 -287 -10 -323 -33 -205 -127 -363
-255 -425 -106 -52 -266 -68 -400 -40 -148 31 -239 105 -305 248 -78 169 -75
112 -75 1292 0 1180 -3 1123 75 1292 65 140 167 224 307 254 85 17 274 7 346
-19 146 -53 232 -165 294 -382 12 -40 17 -119 20 -297 l5 -243 109 0 109 0 0
193 c0 299 -25 441 -106 605 -81 165 -230 287 -414 338 -64 18 -321 27 -392
14z"/>
<path d="M13040 8235 l0 -1735 660 0 660 0 0 100 0 100 -547 2 -548 3 -3 1633
-2 1632 -110 0 -110 0 0 -1735z"/>
<path d="M14690 8609 c0 -1496 -1 -1472 60 -1664 71 -220 221 -376 424 -441
101 -32 293 -44 413 -24 323 51 520 277 572 655 7 51 11 532 11 1456 l0 1379
-105 0 -104 0 -3 -1412 -3 -1413 -22 -77 c-32 -112 -68 -181 -129 -247 -58
-63 -139 -111 -219 -130 -63 -16 -227 -16 -290 0 -129 31 -239 120 -298 242
-76 156 -71 46 -74 1625 l-3 1412 -115 0 -115 0 0 -1361z"/>
<path d="M16570 8235 l0 -1735 105 0 105 0 2 1534 3 1534 519 -1481 c286 -815
528 -1506 539 -1534 l20 -53 128 0 129 0 0 1735 0 1735 -105 0 -105 0 0 -1462
c0 -805 -4 -1456 -9 -1448 -4 8 -239 666 -522 1463 l-514 1447 -147 0 -148 0
0 -1735z"/>
<path d="M20370 8235 l0 -1735 110 0 110 0 0 815 0 815 545 0 545 0 0 -815 0
-815 115 0 115 0 0 1735 0 1735 -115 0 -115 0 0 -815 0 -815 -545 0 -545 0 0
815 0 815 -110 0 -110 0 0 -1735z"/>
<path d="M24930 8235 l0 -1735 115 0 115 0 0 776 0 776 283 -5 c308 -5 357
-12 473 -68 121 -57 195 -154 236 -307 18 -70 21 -121 28 -542 8 -467 11 -510
48 -588 l17 -37 118 -3 c64 -1 117 0 117 3 0 3 -9 24 -21 46 -44 86 -50 159
-58 639 -9 511 -12 537 -88 683 -68 132 -208 241 -357 278 l-49 12 76 27 c205
72 325 203 389 425 22 77 23 94 23 425 0 326 -1 350 -23 434 -72 283 -230 432
-509 481 -67 12 -178 15 -509 15 l-424 0 0 -1735z m898 1510 c215 -51 319
-206 343 -514 15 -191 5 -506 -20 -604 -40 -155 -101 -237 -224 -297 -115 -56
-216 -70 -524 -70 l-243 0 0 750 0 750 303 0 c231 0 317 -4 365 -15z"/>
<path d="M26850 8235 l0 -1735 685 0 685 0 0 100 0 100 -570 0 -570 0 0 730 0
730 475 0 475 0 0 100 0 100 -475 0 -475 0 0 700 0 700 570 0 570 0 0 105 0
105 -685 0 -685 0 0 -1735z"/>
<path d="M28590 8235 l0 -1735 685 0 685 0 0 100 0 100 -567 2 -568 3 0 725 0
725 473 3 472 2 0 100 0 100 -475 0 -475 0 0 700 0 700 570 0 570 0 0 105 0
105 -685 0 -685 0 0 -1735z"/>
<path d="M30340 8235 l0 -1735 110 0 110 0 0 623 0 623 122 192 c115 183 122
192 134 170 7 -13 222 -378 477 -813 l464 -790 121 -3 120 -3 -525 923 c-290
508 -526 928 -526 933 0 6 217 362 482 793 264 431 486 792 491 803 10 18 6
19 -107 19 l-118 0 -560 -910 c-308 -500 -563 -910 -567 -910 -5 0 -8 410 -8
910 l0 910 -110 0 -110 0 0 -1735z"/>
<path d="M5390 9073 c0 -204 -71 -489 -179 -718 -44 -93 -131 -236 -198 -325
-45 -60 -46 -63 -27 -77 10 -8 96 -53 189 -100 343 -173 598 -327 710 -428
l50 -46 -83 -79 c-219 -210 -776 -626 -1917 -1430 -291 -205 -690 -486 -885
-624 -698 -492 -973 -697 -1019 -762 -24 -34 -26 -45 -26 -138 0 -89 3 -110
29 -171 128 -307 548 -672 1337 -1163 419 -260 1182 -683 1706 -946 l133 -66
2552 0 c2487 0 2554 1 2584 19 17 10 41 35 53 55 l22 36 -3 497 c-3 477 -4
499 -23 531 -24 40 -68 62 -390 198 -953 400 -1788 805 -2230 1082 -216 135
-370 262 -395 326 -29 76 62 243 348 640 67 93 122 172 122 176 0 5 -35 27
-77 51 -206 112 -430 298 -575 478 -314 390 -466 914 -403 1395 45 342 183
669 392 929 30 38 53 71 50 74 -17 16 -596 238 -1022 390 -370 133 -802 283
-816 283 -5 0 -9 -39 -9 -87z m1071 -4193 c126 -39 259 -153 275 -235 7 -41
-23 -110 -61 -138 -30 -22 -84 -32 -120 -23 -14 4 -55 33 -90 66 -35 33 -75
62 -88 65 -43 11 -259 -58 -462 -147 -172 -76 -261 -109 -370 -138 -147 -38
-193 -43 -265 -30 -155 28 -257 117 -279 243 l-7 42 -69 -1 c-89 -1 -233 -48
-483 -155 -381 -164 -560 -194 -713 -122 -36 16 -81 45 -102 62 -43 39 -84
119 -93 182 -16 115 69 201 176 178 42 -10 98 -67 107 -110 7 -34 49 -59 100
-59 44 0 335 102 471 164 136 62 288 115 406 141 97 22 198 16 281 -15 78 -30
164 -114 189 -185 38 -107 29 -98 101 -91 86 9 301 80 477 159 159 71 254 106
373 136 146 36 164 37 246 11z m1831 -1658 c80 -39 154 -104 198 -172 29 -45
32 -56 28 -106 -6 -75 -44 -115 -115 -121 -61 -6 -100 12 -145 67 -40 50 -86
80 -124 80 -44 0 -275 -81 -467 -164 -198 -85 -300 -120 -426 -146 -79 -16
-98 -17 -163 -5 -82 14 -159 49 -212 96 -38 33 -96 139 -96 175 0 63 -218 20
-480 -96 -363 -159 -563 -215 -689 -190 -176 34 -301 162 -301 308 0 179 251
208 286 33 7 -33 42 -51 101 -51 52 0 270 75 453 155 264 116 469 173 581 161
163 -17 284 -111 325 -255 l16 -54 67 5 c75 6 267 66 411 129 213 92 291 122
405 155 161 45 249 45 347 -4z"/>
<path d="M8459 8815 c-350 -57 -624 -193 -870 -432 -142 -138 -230 -257 -314
-428 -71 -143 -102 -232 -137 -387 -20 -90 -23 -129 -23 -313 1 -180 4 -225
24 -315 57 -267 174 -504 350 -714 177 -210 455 -392 726 -474 118 -36 223
-58 233 -48 10 10 14 959 5 1076 l-8 94 -331 156 c-371 175 -389 185 -416 220
-50 68 -22 172 56 209 23 12 52 21 64 21 20 0 268 -113 478 -218 54 -27 109
-52 122 -56 l22 -7 0 288 c0 158 5 306 10 328 11 49 65 100 116 110 49 9 122
-28 149 -75 19 -34 20 -57 25 -562 l5 -527 180 85 c336 159 403 187 438 180
123 -23 169 -167 80 -248 -19 -18 -259 -138 -535 -268 l-158 -75 0 -378 0
-379 73 7 c369 34 703 192 967 454 403 402 554 952 414 1511 -146 587 -648
1053 -1244 1154 -136 23 -394 29 -501 11z"/>
<path d="M3330 7123 c0 -523 -1 -513 70 -561 48 -32 137 -28 176 9 52 49 51
42 55 544 l4 470 -152 3 -153 3 0 -468z"/>
<path d="M8440 5058 c0 -593 1 -624 19 -652 31 -47 69 -66 134 -66 53 0 61 3
100 39 l42 40 3 630 3 631 -151 0 -150 0 0 -622z"/>
<path d="M17968 5375 c-234 -187 -329 -240 -588 -330 -380 -132 -520 -281
-520 -556 0 -140 94 -306 201 -354 52 -24 67 -15 97 59 l23 57 -49 47 c-69 66
-92 115 -92 200 0 90 22 151 76 212 59 65 118 97 299 161 83 30 206 82 275
116 68 34 125 61 126 60 1 -1 -45 -121 -103 -267 -355 -904 -394 -1055 -310
-1205 51 -90 162 -137 277 -117 108 20 196 79 300 203 l47 57 12 -57 c29 -137
106 -237 205 -266 132 -40 272 3 383 117 129 133 211 305 431 903 216 586 239
637 323 730 27 29 53 63 57 76 10 26 -2 84 -23 113 -42 57 -181 -52 -259 -203
-71 -139 -204 -469 -298 -741 -67 -195 -152 -408 -200 -505 -153 -304 -321
-398 -405 -226 -25 51 -28 66 -27 156 2 163 68 375 261 835 164 390 223 538
223 559 0 37 -114 76 -146 50 -34 -28 -135 -258 -329 -744 -222 -557 -348
-765 -510 -841 -49 -23 -109 -31 -131 -16 -19 12 -34 49 -34 84 0 57 46 225
118 433 111 318 135 380 232 607 167 388 228 552 217 582 -7 17 -32 29 -84 39
-27 5 -40 1 -75 -28z"/>
<path d="M20635 5308 c-84 -31 -139 -88 -204 -210 -128 -239 -241 -600 -272
-868 -14 -118 -19 -130 -121 -266 -88 -118 -161 -184 -255 -231 -75 -37 -80
-38 -182 -37 -115 0 -143 9 -217 62 -49 36 -90 113 -100 188 l-6 51 173 6
c194 6 275 23 387 78 155 76 231 224 210 407 -8 71 -47 151 -93 189 -16 15
-55 38 -85 52 -50 23 -67 26 -175 26 -117 0 -122 -1 -195 -36 -131 -62 -235
-179 -315 -352 -125 -270 -101 -570 58 -735 42 -43 156 -99 232 -113 69 -13
181 -5 270 17 126 33 283 135 361 237 20 26 40 47 43 47 4 0 12 -27 18 -59 24
-128 88 -223 174 -261 104 -44 239 -36 353 22 52 26 139 109 173 165 l28 45
55 -6 c66 -7 159 14 210 48 85 57 232 249 246 321 11 62 -38 107 -99 91 -15
-3 -42 -33 -72 -78 -98 -149 -164 -208 -231 -208 l-32 0 30 85 c45 132 69 259
70 368 1 89 -2 103 -28 154 -37 72 -83 98 -169 97 -70 0 -109 -18 -165 -74
-96 -96 -160 -348 -131 -515 16 -89 43 -144 99 -199 l46 -46 -39 -41 c-95 -99
-239 -115 -301 -34 -37 49 -51 106 -65 262 l-12 139 101 135 c228 306 353 519
418 714 57 170 45 288 -36 345 -38 27 -110 35 -155 18z m55 -207 c0 -53 -34
-160 -83 -256 -69 -138 -247 -425 -233 -375 89 306 256 670 308 670 4 0 8 -18
8 -39z m-900 -513 c61 -31 90 -83 90 -162 0 -105 -69 -185 -191 -220 -128 -37
-369 -45 -369 -12 0 24 32 121 55 166 102 201 278 297 415 228z m1108 -160
c34 -34 -10 -315 -72 -462 l-16 -39 -25 23 c-33 31 -45 78 -45 175 0 89 20
186 50 245 31 60 80 86 108 58z"/>
<path d="M23016 5272 c-6 -11 -216 -601 -216 -610 0 -4 -4 -13 -9 -21 -7 -11
-16 -6 -41 22 -75 86 -232 120 -367 79 -87 -27 -174 -83 -240 -155 -64 -71
-99 -131 -158 -276 -133 -325 -111 -609 56 -731 110 -79 300 -63 453 39 l59
40 36 -51 c103 -147 296 -130 469 40 37 37 94 102 127 146 l59 78 17 -49 c49
-146 134 -237 267 -285 84 -31 249 -31 352 1 271 83 394 223 690 781 45 85 92
171 103 190 l22 35 6 -105 c12 -194 9 -471 -6 -553 -34 -191 -113 -252 -208
-159 -23 23 -49 42 -56 42 -25 0 -99 -49 -106 -70 -14 -45 65 -133 160 -177
52 -24 72 -28 155 -28 86 0 101 3 162 32 48 22 93 56 156 117 49 47 91 86 94
86 3 0 8 -16 11 -35 8 -50 40 -97 89 -131 37 -26 49 -29 122 -29 136 0 224 55
349 219 l60 79 13 -41 c28 -98 97 -181 181 -219 87 -40 228 -32 326 19 22 11
41 17 44 15 2 -3 -4 -22 -14 -43 -16 -34 -43 -54 -203 -152 -208 -127 -280
-179 -332 -243 -89 -108 -122 -243 -80 -325 41 -79 103 -114 205 -114 79 0
138 28 215 103 73 71 129 165 208 347 36 85 78 170 92 189 14 18 91 76 171
129 80 52 156 104 169 116 l23 20 -7 -42 c-6 -39 -5 -42 20 -52 44 -16 122
-12 142 7 23 23 38 59 128 301 149 399 208 515 319 630 74 76 135 106 219 107
61 0 70 -3 95 -28 26 -25 28 -33 27 -100 -1 -61 -10 -94 -54 -212 -127 -340
-162 -455 -164 -540 -2 -133 45 -187 167 -193 97 -6 170 31 268 136 145 156
312 403 312 463 0 44 -39 81 -83 77 -31 -3 -41 -11 -87 -78 -169 -241 -279
-374 -339 -406 -35 -19 -36 -19 -49 0 -20 26 -13 52 76 293 43 117 95 264 114
328 57 187 46 285 -40 368 -96 93 -296 105 -432 26 l-33 -18 0 24 c0 13 -7 31
-15 39 -20 20 -84 39 -115 34 -32 -4 -58 -58 -145 -304 -109 -307 -130 -357
-191 -445 -71 -103 -159 -212 -211 -260 -41 -39 -143 -114 -143 -106 0 3 52
160 115 349 134 403 195 602 195 640 0 38 -33 58 -96 58 -60 0 -74 -12 -98
-85 l-16 -51 -59 57 c-69 68 -126 89 -235 89 -164 0 -312 -77 -428 -222 -57
-70 -129 -215 -154 -308 -21 -80 -172 -306 -277 -417 -85 -89 -126 -103 -165
-57 -22 25 -24 34 -19 89 8 87 116 389 261 732 31 72 56 138 56 147 0 24 -33
36 -104 36 l-66 0 -26 -57 c-39 -87 -151 -358 -185 -447 -37 -97 -178 -305
-294 -431 l-36 -40 6 30 c28 128 34 400 15 690 -17 243 -34 272 -163 278 -49
1 -69 -2 -83 -15 -19 -16 -104 -166 -286 -498 -176 -322 -276 -443 -423 -516
-77 -38 -82 -39 -184 -38 -75 0 -116 5 -141 16 -102 47 -164 128 -176 230 l-6
55 173 6 c181 6 261 20 362 65 156 69 237 195 237 368 0 138 -54 230 -168 286
-64 32 -71 33 -187 33 -118 0 -121 -1 -197 -37 -43 -20 -101 -58 -129 -85 -97
-91 -186 -239 -230 -383 -42 -139 -285 -461 -408 -541 -57 -37 -95 -38 -118
-2 -32 48 -21 111 60 363 41 129 94 298 117 375 23 77 73 228 112 335 116 322
158 450 158 476 0 24 -2 24 -84 24 -47 0 -87 -3 -90 -8z m916 -689 c46 -26 78
-93 78 -163 0 -98 -73 -179 -194 -215 -70 -21 -235 -37 -304 -30 l-64 7 7 36
c12 66 46 142 97 218 82 122 176 178 290 170 32 -2 73 -13 90 -23z m-1341 -36
c99 -65 103 -243 12 -482 -86 -225 -219 -357 -365 -359 -65 -1 -100 19 -133
75 -17 29 -20 51 -19 159 1 105 5 139 28 215 58 197 160 346 268 395 63 29
164 27 209 -3z m3784 -10 c74 -42 112 -128 100 -226 -9 -74 -68 -252 -107
-319 -81 -142 -238 -257 -348 -256 -68 1 -111 22 -142 71 -21 35 -23 48 -22
173 0 117 4 145 26 213 52 157 148 280 261 337 78 39 171 42 232 7z m-325
-1375 c-56 -104 -132 -208 -173 -232 -18 -12 -45 -19 -62 -18 -43 4 -45 47 -5
116 25 42 56 71 153 143 66 50 123 86 125 80 2 -6 -15 -46 -38 -89z"/>
<path d="M25501 5083 c-97 -48 -94 -186 6 -234 38 -19 50 -20 82 -11 118 36
136 194 28 245 -44 21 -73 21 -116 0z"/>
</g>
</svg>
